<svg id="adobe-xd" xmlns="http://www.w3.org/2000/svg" width="71.799" height="70.004" viewBox="0 0 71.799 70.004">
  <path id="Path_39" data-name="Path 39" d="M59.085,70H12.714A12.7,12.7,0,0,1,0,57.29V12.714A12.7,12.7,0,0,1,12.714,0H59.085A12.7,12.7,0,0,1,71.8,12.714V57.29A12.7,12.7,0,0,1,59.085,70Z" fill="#ff26be"/>
  <path id="Path_40" data-name="Path 40" d="M159.155,168.219h-44.1A10.878,10.878,0,0,1,104.2,157.36v-42.3A10.878,10.878,0,0,1,115.059,104.2h44.068a10.858,10.858,0,0,1,10.859,10.859v42.273a10.841,10.841,0,0,1-10.83,10.888Z" transform="translate(-101.207 -101.207)" fill="#2e001f"/>
  <path id="Path_41" data-name="Path 41" d="M481.676,608.533l8.378,16.095c.149.238.06.48-.181.48h-5.207a.587.587,0,0,1-.629-.388c-1.916-3.949-3.86-7.9-5.865-12.146h-.06c-1.795,4.009-3.771,8.228-5.684,12.177a.577.577,0,0,1-.54.33h-4.931c-.3,0-.33-.238-.178-.419l8.2-15.618-7.927-15.8a.242.242,0,0,1,.178-.419h5.147c.3,0,.419.06.537.33,1.884,3.949,3.8,8.019,5.595,12h.06c1.735-3.949,3.65-8.047,5.506-11.968.149-.238.238-.388.54-.388h4.816c.238,0,.33.181.181.419Zm9.845,4.877c0-6.97,4.638-12.416,12-12.416a13.19,13.19,0,0,1,1.557.06v-7.927a.3.3,0,0,1,.3-.3H510.1c.238,0,.3.089.3.238v27.465a21.365,21.365,0,0,0,.149,2.932c0,.181-.06.238-.238.33a17.81,17.81,0,0,1-7.66,1.735c-6.494.026-11.132-3.981-11.129-12.12Zm13.55-7.657a4.5,4.5,0,0,0-1.735-.3c-3.771,0-6.4,2.9-6.4,7.72,0,5.506,2.694,7.72,6.074,7.72a5.608,5.608,0,0,0,2.065-.33V605.753Z" transform="translate(-453.286 -575.775)" fill="#ffd9f2"/>
</svg>
