<svg xmlns="http://www.w3.org/2000/svg" width="14.766" height="11.92" viewBox="0 0 14.766 11.92">
  <g id="Page-1" transform="translate(-2.654 -4.078)">
    <g id="dev">
      <path id="Fill-1" d="M28.429,13.041a.627.627,0,0,0-.81.362L23.541,24.068a.627.627,0,1,0,1.172.448l4.078-10.665a.627.627,0,0,0-.362-.81" transform="translate(-16.128 -8.922)" fill="#fffffe" fill-rule="evenodd"/>
      <path id="Fill-2" d="M44.75,24.149l-3.335-2.056a.627.627,0,0,0-.658,1.068l3.175,1.958a.069.069,0,0,1,0,.036l-3.175,1.958a.627.627,0,1,0,.658,1.068l3.335-2.056.052-.052a1.325,1.325,0,0,0,0-1.871l-.052-.052" transform="translate(-27.768 -15.099)" fill="#fffffe" fill-rule="evenodd"/>
      <g id="Group-6">
        <path id="Fill-3" d="M12.894,27.112,9.718,25.154a.069.069,0,0,1,0-.036l3.175-1.958a.627.627,0,1,0-.658-1.068L8.9,24.149l-.052.052a1.325,1.325,0,0,0,0,1.871l.052.052,3.335,2.056a.627.627,0,1,0,.658-1.068" transform="translate(-5.808 -15.099)" fill="#fffffe" fill-rule="evenodd"/>
      </g>
    </g>
  </g>
</svg>
