<svg xmlns="http://www.w3.org/2000/svg" width="95.056" height="74.004" viewBox="0 0 95.056 74.004">
  <g id="design" transform="translate(-3.141 -17.869)">
    <rect id="Rectangle_61" data-name="Rectangle 61" width="14.392" height="3.429" transform="translate(33.333 77.652)" fill="#528ac8" opacity="0.3"/>
    <path id="Path_32" data-name="Path 32" d="M64.02,78.908H11.895a8.278,8.278,0,0,1-8.254-8.254V30.339a8.278,8.278,0,0,1,8.254-8.254H69.312a8.278,8.278,0,0,1,8.254,8.254V45.785" transform="translate(0 -1.169)" fill="none" stroke="#3d6cb4" stroke-linecap="round" stroke-linejoin="round" stroke-miterlimit="10" stroke-width="1"/>
    <path id="Path_33" data-name="Path 33" d="M65.8,68.946H13.727a4.447,4.447,0,0,1-4.434-4.434V32.432A4.448,4.448,0,0,1,13.728,28H71.037a4.447,4.447,0,0,1,4.434,4.434V47.287" transform="translate(-1.778 -3.029)" fill="none" stroke="#3d6cb4" stroke-linecap="round" stroke-linejoin="round" stroke-miterlimit="10" stroke-width="1"/>
    <path id="Path_34" data-name="Path 34" d="M9.292,33.838V32.432A4.448,4.448,0,0,1,13.727,28H71.036a4.447,4.447,0,0,1,4.434,4.434v1.407H9.292Z" transform="translate(-1.778 -3.029)" fill="#528ac8" opacity="0.3"/>
    <path id="Path_35" data-name="Path 35" d="M9.292,33.838V32.432A4.448,4.448,0,0,1,13.727,28H71.036a4.447,4.447,0,0,1,4.434,4.434v1.407H9.292Z" transform="translate(-1.778 -3.029)" fill="none" stroke="#3d6cb4" stroke-linecap="round" stroke-linejoin="round" stroke-miterlimit="10" stroke-width="1"/>
    <circle id="Ellipse_39" data-name="Ellipse 39" cx="2.471" cy="2.471" r="2.471" transform="translate(38.133 69.527)" fill="#528ac8" opacity="0.3"/>
    <circle id="Ellipse_40" data-name="Ellipse 40" cx="2.471" cy="2.471" r="2.471" transform="translate(38.133 69.527)" stroke-width="1" stroke="#3d6cb4" stroke-linecap="round" stroke-linejoin="round" stroke-miterlimit="10" fill="none"/>
    <path id="Path_36" data-name="Path 36" d="M59.128,105.247s-1.305,8.436,5.119,8.436H39.557c6.423,0,5.018-8.348,5.018-8.348" transform="translate(-11.299 -27.331)" fill="none" stroke="#3d6cb4" stroke-linecap="round" stroke-linejoin="round" stroke-miterlimit="10" stroke-width="1"/>
    <rect id="Rectangle_62" data-name="Rectangle 62" width="24.644" height="9.208" transform="translate(12.481 35.201)" stroke-width="1" stroke="#3d6cb4" stroke-linecap="round" stroke-linejoin="round" stroke-miterlimit="10" fill="none"/>
    <g id="Group_60" data-name="Group 60" transform="translate(41.146 36.317)">
      <line id="Line_1" data-name="Line 1" x2="20.562" stroke-width="1" stroke="#3d6cb4" stroke-linecap="round" stroke-linejoin="round" stroke-miterlimit="10" fill="none"/>
      <line id="Line_2" data-name="Line 2" x2="23.989" transform="translate(0 4.112)" fill="none" stroke="#3d6cb4" stroke-linecap="round" stroke-linejoin="round" stroke-miterlimit="10" stroke-width="1"/>
      <line id="Line_3" data-name="Line 3" x2="20.562" transform="translate(0 6.854)" fill="none" stroke="#3d6cb4" stroke-linecap="round" stroke-linejoin="round" stroke-miterlimit="10" stroke-width="1"/>
    </g>
    <rect id="Rectangle_63" data-name="Rectangle 63" width="12.322" height="12.322" transform="translate(12.481 49.487)" fill="#528ac8" opacity="0.3"/>
    <rect id="Rectangle_64" data-name="Rectangle 64" width="12.322" height="12.322" transform="translate(12.481 49.487)" stroke-width="1" stroke="#3d6cb4" stroke-linecap="round" stroke-linejoin="round" stroke-miterlimit="10" fill="none"/>
    <rect id="Rectangle_65" data-name="Rectangle 65" width="12.322" height="12.322" transform="translate(29.271 49.487)" stroke-width="1" stroke="#3d6cb4" stroke-linecap="round" stroke-linejoin="round" stroke-miterlimit="10" fill="none"/>
    <rect id="Rectangle_66" data-name="Rectangle 66" width="12.322" height="12.322" transform="translate(46.062 49.487)" stroke-width="1" stroke="#3d6cb4" stroke-linecap="round" stroke-linejoin="round" stroke-miterlimit="10" fill="none"/>
    <path id="Path_37" data-name="Path 37" d="M121.214,103.418H95.079a3.315,3.315,0,0,1-3.305-3.305V59.963a3.315,3.315,0,0,1,3.305-3.305h26.135a3.315,3.315,0,0,1,3.305,3.305v40.15A3.315,3.315,0,0,1,121.214,103.418Z" transform="translate(-27.726 -12.045)" fill="none" stroke="#3d6cb4" stroke-linecap="round" stroke-linejoin="round" stroke-miterlimit="10" stroke-width="1"/>
    <path id="Path_38" data-name="Path 38" d="M121.151,97.119H97.244a2.132,2.132,0,0,1-2.132-2.132V62.682a2.132,2.132,0,0,1,2.132-2.132h23.907a2.132,2.132,0,0,1,2.132,2.132V94.988A2.132,2.132,0,0,1,121.151,97.119Z" transform="translate(-28.776 -13.27)" fill="none" stroke="#3d6cb4" stroke-linecap="round" stroke-linejoin="round" stroke-miterlimit="10" stroke-width="1"/>
    <circle id="Ellipse_41" data-name="Ellipse 41" cx="1.512" cy="1.512" r="1.512" transform="translate(80.139 85.999)" fill="#528ac8" opacity="0.3"/>
    <circle id="Ellipse_42" data-name="Ellipse 42" cx="1.512" cy="1.512" r="1.512" transform="translate(80.139 85.999)" stroke-width="1" stroke="#3d6cb4" stroke-linecap="round" stroke-linejoin="round" stroke-miterlimit="10" fill="none"/>
    <rect id="Rectangle_67" data-name="Rectangle 67" width="20.971" height="17.58" transform="translate(70.345 50.773)" fill="#528ac8" opacity="0.3"/>
    <rect id="Rectangle_68" data-name="Rectangle 68" width="21.411" height="17.58" transform="translate(69.904 50.773)" stroke-width="1" stroke="#3d6cb4" stroke-linecap="round" stroke-linejoin="round" stroke-miterlimit="10" fill="none"/>
    <line id="Line_4" data-name="Line 4" x2="16.45" transform="translate(70.619 73.329)" fill="none" stroke="#3d6cb4" stroke-linecap="round" stroke-linejoin="round" stroke-miterlimit="10" stroke-width="1"/>
    <line id="Line_5" data-name="Line 5" x2="13.708" transform="translate(70.619 76.071)" fill="none" stroke="#3d6cb4" stroke-linecap="round" stroke-linejoin="round" stroke-miterlimit="10" stroke-width="1"/>
    <g id="Group_61" data-name="Group 61" transform="translate(85.055 33.545)">
      <line id="Line_6" data-name="Line 6" y2="4.271" transform="translate(2.135 0)" fill="none" stroke="#3d6cb4" stroke-linecap="round" stroke-linejoin="round" stroke-miterlimit="10" stroke-width="1"/>
      <line id="Line_7" data-name="Line 7" x1="4.271" transform="translate(0 2.135)" fill="none" stroke="#3d6cb4" stroke-linecap="round" stroke-linejoin="round" stroke-miterlimit="10" stroke-width="1"/>
    </g>
    <g id="Group_62" data-name="Group 62" transform="translate(90.564 18.369)">
      <line id="Line_8" data-name="Line 8" y2="7.134" transform="translate(3.566)" fill="none" stroke="#3d6cb4" stroke-linecap="round" stroke-linejoin="round" stroke-miterlimit="10" stroke-width="1"/>
      <line id="Line_9" data-name="Line 9" x1="7.133" transform="translate(0 3.567)" fill="none" stroke="#3d6cb4" stroke-linecap="round" stroke-linejoin="round" stroke-miterlimit="10" stroke-width="1"/>
    </g>
  </g>
</svg>
