<svg id="Page-1" xmlns="http://www.w3.org/2000/svg" width="45" height="45" viewBox="0 0 45 45">
  <g id="Dribbble-Light-Preview" transform="translate(0)">
    <g id="icons">
      <path id="github-_142_" data-name="github-[#142]" d="M106.5,7399c12.427,0,22.5,10.327,22.5,23.069a23.028,23.028,0,0,1-15.374,21.888c-1.141.228-1.546-.493-1.546-1.107,0-.761.027-3.244.027-6.331a5.582,5.582,0,0,0-1.528-4.271c5.011-.571,10.276-2.522,10.276-11.383a9.026,9.026,0,0,0-2.318-6.192,8.466,8.466,0,0,0-.221-6.106s-1.885-.618-6.181,2.364a20.831,20.831,0,0,0-11.268,0c-4.3-2.983-6.19-2.364-6.19-2.364a8.5,8.5,0,0,0-.218,6.106,9.058,9.058,0,0,0-2.317,6.192c0,8.838,5.254,10.817,10.251,11.4a4.958,4.958,0,0,0-1.429,3.085c-1.283.59-4.54,1.608-6.548-1.917a4.746,4.746,0,0,0-3.449-2.379s-2.194-.029-.153,1.4c0,0,1.474.709,2.5,3.375,0,0,1.321,4.118,7.58,2.723.011,1.929.032,3.746.032,4.3,0,.609-.414,1.323-1.537,1.109A23.028,23.028,0,0,1,84,7422.068C84,7409.326,94.076,7399,106.5,7399" transform="translate(-84 -7398.999)" fill="#7d7d7d" fill-rule="evenodd"/>
    </g>
  </g>
</svg>
