<svg id="html5" xmlns="http://www.w3.org/2000/svg" width="61.726" height="70.004" viewBox="0 0 61.726 70.004">
  <path id="Path_20" data-name="Path 20" d="M14.65,64.667,9.032,1.661H70.758l-5.624,63L39.858,71.665Z" transform="translate(-9.032 -1.661)" fill="#e44d26"/>
  <path id="Path_21" data-name="Path 21" d="M64,70.333l20.425-5.663,4.806-53.833H64Z" transform="translate(-33.137 -5.684)" fill="#f16529"/>
  <path id="Path_22" data-name="Path 22" d="M48.866,40.24H38.64l-.706-7.913H48.866V24.6H29.489l.185,2.073,1.9,21.3H48.866Zm0,20.069-.034.01-8.606-2.325-.55-6.162H31.919L33,63.964l15.83,4.394.035-.01Z" transform="translate(-18.003 -11.72)" fill="#ebebeb"/>
  <path id="Path_23" data-name="Path 23" d="M63.952,40.24v7.728h9.515l-.9,10.022-8.619,2.326v8.04l15.842-4.391.116-1.305,1.816-20.344.188-2.075H63.952Zm0-15.641v7.727H82.618l.155-1.736.353-3.918L83.31,24.6Z" transform="translate(-33.116 -11.72)" fill="#fff"/>
</svg>
