<svg id="javascript" xmlns="http://www.w3.org/2000/svg" width="70.004" height="70.004" viewBox="0 0 70.004 70.004">
  <path id="Path_26" data-name="Path 26" d="M0,0H70V70H0Z" fill="#f7df1e"/>
  <path id="Path_27" data-name="Path 27" d="M67.311,142.891l5.357-3.242c1.034,1.832,1.974,3.383,4.229,3.383,2.162,0,3.525-.846,3.525-4.135V116.529H87V138.99c0,6.814-3.994,9.915-9.821,9.915-5.263,0-8.317-2.726-9.868-6.015m23.263-.7,5.356-3.1c1.41,2.3,3.243,3.994,6.485,3.994,2.726,0,4.464-1.363,4.464-3.243,0-2.255-1.786-3.054-4.793-4.37l-1.644-.706c-4.746-2.02-7.895-4.558-7.895-9.915,0-4.934,3.759-8.694,9.633-8.694,4.182,0,7.19,1.457,9.351,5.263l-5.122,3.29c-1.128-2.021-2.349-2.819-4.229-2.819a2.862,2.862,0,0,0-3.149,2.819c0,1.974,1.222,2.773,4.041,3.995l1.645.7c5.592,2.4,8.74,4.84,8.74,10.338,0,5.921-4.652,9.163-10.9,9.163-6.109,0-10.056-2.913-11.982-6.72" transform="translate(-48.905 -84.391)"/>
</svg>
