<svg id="react" xmlns="http://www.w3.org/2000/svg" width="77.861" height="70.004" viewBox="0 0 77.861 70.004">
  <path id="Path_28" data-name="Path 28" d="M.754,35.661c0,5.88,5.742,11.369,14.794,14.464-1.808,9.1-.324,16.435,4.632,19.293,5.094,2.938,12.682.9,19.885-5.392,7.021,6.042,14.117,8.42,19.068,5.554,5.089-2.946,6.637-10.778,4.779-20.163,9.429-3.117,14.7-7.8,14.7-13.755,0-5.744-5.752-10.713-14.683-13.787,2-9.772.305-16.929-4.856-19.905C54.1-.9,46.923,1.6,39.8,7.8,32.387,1.219,25.28-.79,20.124,2.195c-4.971,2.878-6.389,10.346-4.576,19.615C6.8,24.859.754,29.94.754,35.661Z" transform="translate(-0.754 -0.785)" fill="#fff"/>
  <path id="Path_29" data-name="Path 29" d="M72.1,34.455q-1.1-.379-2.226-.7.186-.756.344-1.518C71.9,24.056,70.8,17.467,67.035,15.3c-3.607-2.08-9.507.089-15.465,5.274q-.881.768-1.722,1.58-.563-.54-1.146-1.058c-6.244-5.545-12.5-7.881-16.262-5.705-3.6,2.086-4.671,8.281-3.154,16.033q.226,1.151.511,2.29c-.886.252-1.741.52-2.559.8-7.321,2.552-12,6.553-12,10.7,0,4.286,5.019,8.584,12.644,11.19q.927.316,1.87.585-.306,1.226-.543,2.469C27.768,67.077,28.9,73.125,32.491,75.2c3.712,2.141,9.943-.06,16.01-5.363q.719-.629,1.443-1.33.911.879,1.869,1.705c5.877,5.057,11.681,7.1,15.272,5.02,3.709-2.147,4.914-8.644,3.349-16.549q-.179-.906-.415-1.848.656-.194,1.286-.4c7.927-2.626,13.085-6.872,13.085-11.215,0-4.164-4.826-8.191-12.294-10.762Z" transform="translate(-10.809 -10.313)" fill="#53c1de"/>
  <path id="Path_30" data-name="Path 30" d="M77.075,60.312c-.378.125-.766.246-1.161.363a69.33,69.33,0,0,0-3.5-8.76,69.3,69.3,0,0,0,3.365-8.632c.707.205,1.394.421,2.056.649,6.4,2.2,10.3,5.459,10.3,7.969,0,2.673-4.215,6.143-11.06,8.411Zm-2.84,5.627a25.014,25.014,0,0,1,.332,9.126c-.412,2.22-1.24,3.7-2.264,4.293-2.179,1.261-6.84-.378-11.865-4.7q-.864-.744-1.739-1.585a69.416,69.416,0,0,0,5.8-7.36,68.957,68.957,0,0,0,9.365-1.444Q74.072,65.12,74.235,65.939Zm-28.72,13.2c-2.129.752-3.825.773-4.85.182-2.181-1.258-3.088-6.114-1.851-12.628q.221-1.155.5-2.3a69.462,69.462,0,0,0,9.318,1.349,71.88,71.88,0,0,0,5.936,7.334q-.644.623-1.317,1.213a25.018,25.018,0,0,1-7.741,4.846ZM35.541,60.3a25.024,25.024,0,0,1-8.065-4.284C25.761,54.542,24.9,53.084,24.9,51.9c0-2.518,3.754-5.729,10.015-7.912q1.179-.409,2.38-.749a70.845,70.845,0,0,0,3.37,8.733,71.924,71.924,0,0,0-3.412,8.857q-.86-.246-1.707-.534Zm3.344-22.759c-1.3-6.642-.437-11.652,1.735-12.909,2.314-1.339,7.429.57,12.82,5.358.345.306.691.626,1.037.958a70.789,70.789,0,0,0-5.89,7.289,72.177,72.177,0,0,0-9.227,1.434q-.264-1.059-.475-2.131ZM68.712,44.9q-1.014-1.751-2.1-3.458c2.206.278,4.32.649,6.3,1.1A63.009,63.009,0,0,1,70.7,48.5q-.959-1.819-1.989-3.6ZM56.548,33.054a63.175,63.175,0,0,1,4.069,4.912q-4.084-.193-8.173,0C53.788,36.193,55.164,34.547,56.548,33.054ZM44.307,44.921q-1.017,1.765-1.952,3.576c-.86-2.04-1.6-4.046-2.2-5.983,1.973-.442,4.077-.8,6.269-1.076q-1.1,1.717-2.12,3.484Zm2.183,17.652a62.9,62.9,0,0,1-6.373-1.025c.611-1.971,1.363-4.021,2.241-6.1q.938,1.812,1.96,3.578,1.043,1.8,2.171,3.551Zm10.14,8.382c-1.4-1.511-2.8-3.182-4.16-4.979q1.986.078,4.046.078,2.114,0,4.174-.093A62.821,62.821,0,0,1,56.63,70.955Zm14.1-15.617a62.735,62.735,0,0,1,2.322,6.083,62.692,62.692,0,0,1-6.45,1.1Q67.7,60.783,68.724,59q1.043-1.809,2.005-3.664Zm-4.564,2.188q-1.571,2.729-3.317,5.352c-2.052.147-4.172.222-6.332.222s-4.245-.067-6.261-.2q-1.79-2.615-3.379-5.361-1.58-2.729-2.95-5.571Q45.29,49.13,46.866,46.4h0q1.574-2.732,3.353-5.338c2.056-.155,4.165-.237,6.3-.237s4.252.082,6.308.239q1.759,2.6,3.332,5.32t2.981,5.548q-1.385,2.851-2.971,5.6Zm6.094-32.987c2.315,1.335,3.216,6.721,1.761,13.783q-.143.69-.311,1.375a70.764,70.764,0,0,0-9.246-1.461,69.393,69.393,0,0,0-5.845-7.3q.777-.749,1.59-1.459c5.105-4.443,9.876-6.2,12.05-4.943Z" transform="translate(-17.507 -16.996)" fill="#fff"/>
  <path id="Path_31" data-name="Path 31" d="M114.219,94.665a6.175,6.175,0,1,1-6.175,6.175,6.175,6.175,0,0,1,6.175-6.175" transform="translate(-75.211 -65.935)" fill="#53c1de"/>
</svg>
