<svg xmlns="http://www.w3.org/2000/svg" width="93.391" height="70.004" viewBox="0 0 93.391 70.004">
  <path id="sass" d="M80.28,40.439a19.24,19.24,0,0,0-8.464,1.97,17.41,17.41,0,0,1-1.9-4.378,12.109,12.109,0,0,1-.164-3.685,29.527,29.527,0,0,1,1.113-3.977c-.018-.164-.2-.967-2.08-.985s-3.5.365-3.685.857a20.949,20.949,0,0,0-.784,2.791c-.328,1.715-3.758,7.789-5.71,10.982a11.2,11.2,0,0,1-1.3-3.211,12.108,12.108,0,0,1-.164-3.685,29.542,29.542,0,0,1,1.113-3.977c-.018-.164-.2-.967-2.079-.985s-3.5.365-3.685.857-.383,1.66-.784,2.791c-.383,1.131-4.944,11.274-6.13,13.919-.6,1.35-1.131,2.426-1.514,3.156s-.018.055-.055.128c-.328.62-.511.967-.511.967v.018c-.255.456-.529.894-.657.894a6.084,6.084,0,0,1,.036-2.9c.675-3.521,2.317-9.012,2.3-9.212,0-.091.31-1.058-1.058-1.551a1.662,1.662,0,0,0-1.915.328c-.109,0-.2.292-.2.292s1.478-6.184-2.828-6.184c-2.7,0-6.421,2.937-8.264,5.619-1.167.638-3.648,1.988-6.275,3.43-1,.547-2.043,1.131-3.028,1.66l-.2-.219C16.2,40.585,6.546,36.645,6.947,29.165c.146-2.718,1.095-9.887,18.534-18.571C39.764,3.48,51.2,5.432,53.19,9.774c2.828,6.2-6.111,17.731-20.96,19.391-5.655.638-8.629-1.551-9.376-2.371-.784-.857-.894-.894-1.186-.73-.474.255-.182,1.022,0,1.478.438,1.149,2.262,3.192,5.363,4.214,2.718.894,9.358,1.386,17.385-1.715C53.41,26.557,60.433,16.888,58.371,8.807,56.274.58,42.628-2.12,29.731,2.459c-7.68,2.736-16,7-21.982,12.605C.635,21.7-.5,27.505-.022,29.913c1.66,8.592,13.5,14.192,18.242,18.333-.237.128-.456.255-.657.365C15.192,49.779,6.162,54.5,3.9,59.5c-2.554,5.655.4,9.723,2.371,10.271,6.093,1.7,12.332-1.35,15.706-6.367,3.356-5.017,2.955-11.529,1.4-14.5l-.055-.109L25.189,47.7c1.2-.711,2.39-1.368,3.43-1.934a22.713,22.713,0,0,0-1.222,6.2c-.255,3.211,1.058,7.37,2.791,9.012a3.088,3.088,0,0,0,2.244.73c2.007,0,2.919-1.66,3.922-3.648,1.24-2.426,2.335-5.235,2.335-5.235s-1.368,7.607,2.371,7.607c1.368,0,2.736-1.769,3.357-2.682v.018s.036-.055.109-.182.15-.229.219-.346V57.2c.547-.949,1.769-3.119,3.594-6.713,2.353-4.634,4.615-10.435,4.615-10.435a33.3,33.3,0,0,0,.894,3.758A35.961,35.961,0,0,0,55.8,48.192c-.547.766-.876,1.2-.876,1.2l.018.018c-.438.584-.93,1.2-1.441,1.824a53.017,53.017,0,0,0-4.378,5.491,1.5,1.5,0,0,0,.4,2.007,3.652,3.652,0,0,0,2.3.365,10.239,10.239,0,0,0,3.43-.785,11.877,11.877,0,0,0,2.955-1.551,6.579,6.579,0,0,0,2.828-5.819,11.7,11.7,0,0,0-1.076-4.1c.164-.237.329-.474.493-.73a77,77,0,0,0,5.108-8.847,33.3,33.3,0,0,0,.894,3.758,26.345,26.345,0,0,0,1.66,3.758,16.218,16.218,0,0,0-4.98,6.439c-1.076,3.1-.237,4.506,1.35,4.834a4.856,4.856,0,0,0,2.5-.511,11.325,11.325,0,0,0,3.156-1.624c1.824-1.35,3.575-3.229,3.484-5.765a11.051,11.051,0,0,0-.784-3.411,17.772,17.772,0,0,1,9.048-1.04c8.118.949,9.723,6.02,9.413,8.136a5.449,5.449,0,0,1-2.572,3.648c-.565.347-.748.474-.693.73.073.383.328.365.821.292a6.315,6.315,0,0,0,4.415-5.637c.219-5.017-4.542-10.49-12.988-10.435ZM17.673,61.545c-2.682,2.937-6.458,4.05-8.063,3.1-1.733-1-1.058-5.327,2.244-8.446a42.922,42.922,0,0,1,6.33-4.725c.383-.237.967-.584,1.66-1a1.945,1.945,0,0,1,.182-.109c.128-.073.274-.164.42-.255a11.636,11.636,0,0,1-2.773,11.438ZM37.283,48.21c-.93,2.28-2.9,8.136-4.086,7.808-1.022-.274-1.642-4.706-.2-9.085a20.281,20.281,0,0,1,3.192-5.856c1.478-1.642,3.083-2.189,3.484-1.514C40.147,40.439,37.867,46.787,37.283,48.21Zm16.181,7.735c-.4.2-.766.347-.93.237-.128-.073.164-.347.164-.347s2.025-2.171,2.828-3.174c.456-.584,1-1.259,1.587-2.025v.219c0,2.627-2.517,4.378-3.648,5.089ZM65.941,53.1c-.292-.219-.255-.894.73-3.01a11.279,11.279,0,0,1,2.773-3.575,4.513,4.513,0,0,1,.274,1.569A5.133,5.133,0,0,1,65.941,53.1Z" transform="translate(0.116 -0.241)" fill="#cf649a"/>
</svg>
