<svg width="1099" height="633" viewBox="0 0 1099 633" fill="none" xmlns="http://www.w3.org/2000/svg">
<g id="landing-img 1">
<g clip-path="url(#clip0)">
<g id="rect">
<path id="rectangle-animate" d="M388.592 282.014H310.529V299.824H388.592V282.014Z" fill="#3F3D56"/>
</g>
<g id="text3">
<path id="Rectangle 21" d="M312.592 216.531H234.529V225.824H312.592V216.531Z" fill="#3F3D56"/>
</g>
<g id="text2">
<path id="Rectangle 20" d="M464.999 196.086H234.529V205.379H464.999V196.086Z" fill="#3F3D56"/>
</g>
<g id="text1">
<path id="Rectangle 19" d="M464.999 175.641H234.529V184.934H464.999V175.641Z" fill="#3F3D56"/>
</g>
<g id="arm">
<path id="Path 4" d="M191.29 180.864C191.29 180.864 222.069 166.158 221.577 178.859C221.085 191.56 190.552 199.915 190.552 199.915L191.29 180.864Z" fill="#FFB9B9"/>
<path id="Path 12" d="M136.157 167.596L161.311 174.931L196.237 176.285L199.83 206.633L142.43 210.767C142.43 210.767 128.096 170.464 136.157 167.596Z" fill="#575A89"/>
</g>
<g id="main">
<path id="Ellipse 8" d="M549.375 632.371C852.786 632.371 1098.75 618.225 1098.75 600.774C1098.75 583.323 852.786 569.177 549.375 569.177C245.964 569.177 0 583.323 0 600.774C0 618.225 245.964 632.371 549.375 632.371Z" fill="#F2F2F2"/>
<path id="Rectangle 18" d="M1000.28 0H174.967V26.257H1000.28V0Z" fill="#F2F2F2"/>
<path id="Ellipse 9" d="M197.053 19.536C200.806 19.536 203.848 16.4938 203.848 12.741C203.848 8.98827 200.806 5.94604 197.053 5.94604C193.3 5.94604 190.258 8.98827 190.258 12.741C190.258 16.4938 193.3 19.536 197.053 19.536Z" fill="#3976AB"/>
<path id="Ellipse 10" d="M219.138 19.536C222.891 19.536 225.933 16.4938 225.933 12.741C225.933 8.98827 222.891 5.94604 219.138 5.94604C215.385 5.94604 212.343 8.98827 212.343 12.741C212.343 16.4938 215.385 19.536 219.138 19.536Z" fill="#3976AB"/>
<path id="Ellipse 11" d="M241.223 19.536C244.976 19.536 248.018 16.4938 248.018 12.741C248.018 8.98827 244.976 5.94604 241.223 5.94604C237.47 5.94604 234.428 8.98827 234.428 12.741C234.428 16.4938 237.47 19.536 241.223 19.536Z" fill="#3976AB"/>
<path id="Path 3" d="M175.552 415.277L174.967 415.777V592.9H1000.28V281.779L990.449 282.525L175.552 415.277Z" fill="#3F3D56"/>
<path id="Rectangle 22" d="M934.999 433.641H704.529V442.934H934.999V433.641Z" fill="white"/>
<path id="Rectangle 23" d="M934.999 454.086H704.529V463.379H934.999V454.086Z" fill="white"/>
<path id="Rectangle 24" d="M782.592 474.531H704.529V483.824H782.592V474.531Z" fill="white"/>
<path id="Ellipse 12" d="M561.336 584.335C566.343 584.335 570.402 580.276 570.402 575.269C570.402 570.262 566.343 566.203 561.336 566.203C556.329 566.203 552.27 570.262 552.27 575.269C552.27 580.276 556.329 584.335 561.336 584.335Z" fill="#F2F2F2"/>
<path id="Ellipse 13" d="M587.626 585.242C592.633 585.242 596.692 581.183 596.692 576.176C596.692 571.169 592.633 567.11 587.626 567.11C582.619 567.11 578.56 571.169 578.56 576.176C578.56 581.183 582.619 585.242 587.626 585.242Z" fill="#F2F2F2"/>
<path id="Ellipse 14" d="M613.917 586.148C618.924 586.148 622.983 582.089 622.983 577.082C622.983 572.075 618.924 568.016 613.917 568.016C608.91 568.016 604.851 572.075 604.851 577.082C604.851 582.089 608.91 586.148 613.917 586.148Z" fill="#F2F2F2"/>
<path id="Ellipse 15" d="M587.709 583.429C591.715 583.429 594.962 580.182 594.962 576.176C594.962 572.17 591.715 568.923 587.709 568.923C583.703 568.923 580.456 572.17 580.456 576.176C580.456 580.182 583.703 583.429 587.709 583.429Z" fill="#3F3D56"/>
<path id="Rectangle 26" d="M852.592 523.014H774.529V540.824H852.592V523.014Z" fill="white"/>
<path id="Ellipse 16" opacity="0.3" d="M350 345.014C379.823 345.014 404 320.837 404 291.014C404 261.191 379.823 237.014 350 237.014C320.177 237.014 296 261.191 296 291.014C296 320.837 320.177 345.014 350 345.014Z" fill="#3976AB"/>
<path id="Ellipse 17" opacity="0.3" d="M350 327.014C369.882 327.014 386 310.896 386 291.014C386 271.132 369.882 255.014 350 255.014C330.118 255.014 314 271.132 314 291.014C314 310.896 330.118 327.014 350 327.014Z" fill="#3976AB"/>
<path id="Ellipse 18" d="M350 316.014C363.807 316.014 375 304.821 375 291.014C375 277.207 363.807 266.014 350 266.014C336.193 266.014 325 277.207 325 291.014C325 304.821 336.193 316.014 350 316.014Z" fill="#3976AB"/>
<path id="Ellipse 19" opacity="0.3" d="M804.375 211.185C834.198 211.185 858.375 187.008 858.375 157.185C858.375 127.362 834.198 103.185 804.375 103.185C774.552 103.185 750.375 127.362 750.375 157.185C750.375 187.008 774.552 211.185 804.375 211.185Z" fill="#3976AB"/>
<path id="Ellipse 20" opacity="0.3" d="M804.375 193.185C824.257 193.185 840.375 177.067 840.375 157.185C840.375 137.303 824.257 121.185 804.375 121.185C784.493 121.185 768.375 137.303 768.375 157.185C768.375 177.067 784.493 193.185 804.375 193.185Z" fill="#3976AB"/>
<path id="Ellipse 21" d="M804.375 182.185C818.182 182.185 829.375 170.992 829.375 157.185C829.375 143.378 818.182 132.185 804.375 132.185C790.568 132.185 779.375 143.378 779.375 157.185C779.375 170.992 790.568 182.185 804.375 182.185Z" fill="#3976AB"/>
<path id="Ellipse 22" opacity="0.3" d="M814 586.014C843.823 586.014 868 561.837 868 532.014C868 502.191 843.823 478.014 814 478.014C784.177 478.014 760 502.191 760 532.014C760 561.837 784.177 586.014 814 586.014Z" fill="#3976AB"/>
<path id="Ellipse 23" opacity="0.3" d="M814 568.014C833.882 568.014 850 551.896 850 532.014C850 512.132 833.882 496.014 814 496.014C794.118 496.014 778 512.132 778 532.014C778 551.896 794.118 568.014 814 568.014Z" fill="#3976AB"/>
<path id="Ellipse 24" d="M814 557.014C827.807 557.014 839 545.821 839 532.014C839 518.207 827.807 507.014 814 507.014C800.193 507.014 789 518.207 789 532.014C789 545.821 800.193 557.014 814 557.014Z" fill="#3976AB"/>
<path id="Rectangle 27" d="M89.9227 109.361L112.148 110.223L113.256 81.6475L91.031 80.7855L89.9227 109.361Z" fill="#3976AB"/>
<path id="Path 5" d="M174.403 288.324C174.403 288.324 188.924 323.866 194.29 349.513C199.656 375.16 207.826 410.455 197.316 435.487C186.806 460.519 156.924 534.087 156.616 542.024C156.308 549.961 159.175 558.024 152.825 557.776C146.475 557.528 111.918 546.65 110.515 541.826C109.112 537.002 122.305 524.794 122.305 524.794L154.882 422.712L120.892 356.206L96.375 455.421L91.575 579.249C91.575 579.249 68.008 571.975 64.587 578.202C64.587 578.202 54.028 563.483 52.687 557.071C51.346 550.659 57.675 428.485 57.675 428.485C57.675 428.485 36.041 289.318 53.504 289.995C70.967 290.672 139.367 248.807 174.403 288.324Z" fill="#2F2E41"/>
<path id="Path 6" d="M153.075 551.426C153.075 551.426 169.184 587.026 170.71 588.678C172.236 590.33 182.733 606.634 174.795 606.326C166.857 606.018 148.115 597.342 134.319 584.087C120.523 570.832 102.335 547.868 103.984 546.342C105.633 544.816 116.931 540.484 116.931 540.484L153.075 551.426Z" fill="#2F2E41"/>
<path id="Path 7" d="M88.708 571.185C88.708 571.185 89.68 587.122 92.608 593.595C95.536 600.068 95.167 609.595 87.23 609.286C79.293 608.977 58.777 605.003 58.777 605.003C58.777 605.003 57.559 595.416 59.208 593.89C60.857 592.364 67.884 575.147 64.894 570.262C61.904 565.377 88.708 571.185 88.708 571.185Z" fill="#2F2E41"/>
<path id="Path 8" d="M76.964 54.006C76.964 54.006 60.042 80.379 53.446 86.483C46.85 92.587 65.408 106.026 65.408 106.026L98.623 110.494C98.623 110.494 98.205 80.269 99.916 77.156C101.627 74.043 76.964 54.006 76.964 54.006Z" fill="#FFB9B9"/>
<path id="Path 9" d="M105.835 88.514C105.835 88.514 98.992 100.968 92.642 100.722C86.292 100.476 53.442 86.483 52.042 81.658C50.642 76.833 41.162 116.215 41.162 116.215L121.535 257.656L141.135 244.107L131.635 161.062L123.835 116.241L105.835 88.514Z" fill="#3976AB"/>
<path id="Path 10" d="M49.075 215.098C52.281 221.805 54.283 228.798 54.006 235.958C53.994 236.276 53.981 236.593 53.953 236.91C53.192 251.603 47.78 268.596 45.838 280.954C44.429 289.819 44.83 296.29 50.018 297.81C62.595 301.478 48.184 304.099 96.844 320.295C145.504 336.491 153.996 322.511 154.119 319.336C154.242 316.161 147.228 292.036 148.877 290.514C150.526 288.992 171.951 310.488 178.425 307.559C184.899 304.63 179.164 288.508 179.164 288.508C179.164 288.508 164.581 254.554 164.889 246.616C165.197 238.678 142.8 201.241 142.8 201.241L127.566 102.074C127.566 102.074 121.708 89.127 113.832 87.232C105.956 85.337 99.421 89.853 99.421 89.853L112.601 118.983L126.507 170.4L124.181 189.389C124.181 189.389 108.011 155.373 97.391 142.242C86.771 129.111 64.127 98.024 64.127 98.024C64.127 98.024 58.841 80.187 62.827 74.856C66.818 69.51 46.18 68.709 37.381 90.627C32.717 102.243 25.145 119.566 20.402 135.695C16.175 149.985 14.183 163.343 18.375 170.979C24.775 182.642 40.875 197.974 49.075 215.098Z" fill="#575A89"/>
<path id="Path 11" opacity="0.1" d="M18.375 170.979C24.775 182.643 40.875 197.979 49.083 215.098C51.227 207.375 53.842 199.383 53.842 199.383C53.842 199.383 63.873 145.714 34.202 131.844C29.2858 131.369 24.3689 132.742 20.411 135.697C16.175 149.985 14.183 163.344 18.375 170.979Z" fill="black"/>
<path id="Path 13" d="M95.139 269.636C95.139 269.636 128.791 275.219 121.11 285.346C113.429 295.473 83.618 284.826 83.618 284.826L95.139 269.636Z" fill="#FFB9B9"/>
<path id="Path 14" opacity="0.1" d="M53.956 236.91C53.195 251.603 47.783 268.596 45.841 280.954C56.561 291.1 66.755 300.054 70.597 300.198C78.535 300.506 91.297 299.411 95.997 301.183C100.697 302.955 103.455 272.854 103.455 272.854C103.455 272.854 100.649 263.206 88.134 257.954C79.687 254.395 63.494 244.752 53.956 236.91Z" fill="black"/>
<path id="Path 15" d="M34.567 122.319C34.567 122.319 7.70198 118.097 9.15298 162.672C10.604 207.247 6.32098 235.699 17.126 244.072C27.931 252.445 63.026 290.372 70.966 290.678C78.906 290.984 91.666 289.891 96.366 291.663C101.066 293.435 103.824 263.334 103.824 263.334C103.824 263.334 101.018 253.685 88.502 248.434C75.986 243.183 46.502 224.546 46.746 218.196C46.99 211.846 54.204 189.867 54.204 189.867C54.204 189.867 64.238 136.185 34.567 122.319Z" fill="#575A89"/>
<path id="Ellipse 25" d="M100.654 93.056C119.957 93.056 135.606 77.4074 135.606 58.104C135.606 38.8005 119.957 23.152 100.654 23.152C81.3506 23.152 65.702 38.8005 65.702 58.104C65.702 77.4074 81.3506 93.056 100.654 93.056Z" fill="#FFB9B9"/>
<path id="Path 16" d="M124.189 8.00805C125.032 8.73452 126.042 9.24123 127.128 9.48306C127.673 9.57942 128.234 9.45666 128.689 9.14149C129.144 8.82632 129.457 8.34423 129.558 7.80006C130.358 9.45806 131.258 11.2261 132.893 12.0771C134.528 12.9281 137.05 12.2141 137.286 10.3881C137.524 11.7746 138.138 13.0694 139.06 14.1321C140.073 15.0981 141.91 15.3421 142.794 14.2571C142.079 18.1641 142.52 22.1831 142.294 26.1491C142.068 30.1151 141.012 34.3191 138.016 36.9271C133.646 40.7271 127.075 39.7921 121.327 39.0711C120.458 38.8887 119.556 38.938 118.712 39.2141C116.56 40.1311 116.657 43.1271 116.628 45.4661C116.453 49.571 114.829 53.4811 112.044 56.5019C109.259 59.5227 105.493 61.4587 101.416 61.9661C99.1345 62.318 96.8067 61.7497 94.944 60.3861C93.312 59.0031 92.478 56.7481 90.608 55.7091C87.566 54.0191 83.876 56.4841 81.652 59.1611C79.428 61.8381 77.236 65.1301 73.79 65.6201C69.233 66.2681 65.762 61.62 64.06 57.348C61.7106 51.3546 60.585 44.9515 60.7495 38.5162C60.9141 32.0808 62.3654 25.7436 65.018 19.878C74.533 -0.865952 107.036 -4.14595 124.189 8.00805Z" fill="#2F2E41"/>
<path id="Path 17" d="M963.225 563.769C975.535 584.761 1000.36 593.069 1000.36 593.069C1000.36 593.069 1005.23 567.345 992.92 546.352C980.61 525.359 955.784 517.052 955.784 517.052C955.784 517.052 950.915 542.777 963.225 563.769Z" fill="#F2F2F2"/>
<path id="Path 18" d="M970.905 556.443C992.193 568.234 1001.11 592.849 1001.11 592.849C1001.11 592.849 975.512 598.349 954.227 586.557C932.942 574.765 924.02 550.151 924.02 550.151C924.02 550.151 949.615 544.652 970.905 556.443Z" fill="#3976AB"/>
</g>
</g>
</g>
<defs>
<clipPath id="clip0">
<rect width="1098.75" height="632.371" fill="white"/>
</clipPath>
</defs>
</svg>
