<?xml version="1.0" standalone="no"?>
<!DOCTYPE svg PUBLIC "-//W3C//DTD SVG 20010904//EN"
 "http://www.w3.org/TR/2001/REC-SVG-20010904/DTD/svg10.dtd">
<svg version="1.0" xmlns="http://www.w3.org/2000/svg"
 width="216.000000pt" height="216.000000pt" viewBox="0 0 216.000000 216.000000"
 preserveAspectRatio="xMidYMid meet">
<metadata>
Created by potrace 1.11, written by Peter Selinger 2001-2013
</metadata>
<g transform="translate(0.000000,216.000000) scale(0.100000,-0.100000)"
fill="#000000" stroke="none">
<path d="M1068 2145 c-150 -28 -338 -105 -478 -197 -89 -58 -229 -200 -273
-276 -93 -158 -106 -333 -33 -440 36 -53 103 -86 199 -97 63 -8 65 -6 41 51
-23 53 -22 225 0 330 71 326 348 519 729 509 144 -4 230 -46 291 -143 48 -77
61 -136 60 -267 -3 -262 -159 -545 -356 -643 -77 -38 -138 -51 -138 -29 0 8
29 149 64 313 36 165 72 335 81 379 9 44 18 85 19 90 1 6 8 37 15 70 7 33 14
67 17 76 5 18 -8 18 -91 6 -22 -4 -60 -9 -85 -12 -25 -3 -56 -8 -70 -10 -14
-3 -47 -7 -75 -10 -59 -6 -96 -13 -102 -18 -2 -3 -6 -17 -9 -33 -3 -16 -14
-69 -25 -119 -11 -49 -54 -247 -94 -440 -79 -372 -147 -691 -164 -765 -6 -25
-29 -133 -51 -240 -23 -107 -43 -203 -46 -212 -5 -17 9 -18 205 -18 116 0 211
4 211 8 0 6 58 287 85 412 38 179 86 395 88 396 1 1 39 5 83 8 102 9 116 11
200 37 265 82 474 304 544 578 17 65 21 193 8 259 -6 31 -28 94 -50 140 -69
147 -197 246 -375 293 -101 27 -315 34 -425 14z"/>
</g>
</svg>
